# xmcd
#
# Track frame offsets:
#	150
#	13407
#	28782
#	43233
#	60048
#	78734
#	94097
#	106942
#	127380
#	146271
#	162183
#	179445
#	197513
#	207943
#	223968
#	239323
#	250321
#	269835
#	285177
#	303897
#
# Disc length: 4284 seconds
#
# Revision: 1
# Processed by: cddbd v1.5.2PL0 Copyright (c) Steve Scherf et al.
# Submitted via: audiograbber 1.83.01
#
DISCID=2810ba14
DTITLE=Texas Lightning - Meanwhile, Back At The Golden Ranch
DYEAR=2006
DGENRE=Country
TTITLE0=Bad Case Of Loving You
TTITLE1=Like A Virgin
TTITLE2=I Promise
TTITLE3=No No Never
TTITLE4=Kiss
TTITLE5=Enjoy The Silence
TTITLE6=C´est La Vie
TTITLE7=Over The Mountains
TTITLE8=Man In The Mirror
TTITLE9=Dancing Queen
TTITLE10=Highway To Hell
TTITLE11=You´re The Voice
TTITLE12=Norwegian Wood
TTITLE13=Nothing Compares 2 U
TTITLE14=Out there Somewhere
TTITLE15=Raindrops Are Falling On My Head
TTITLE16=Blue Bayou
TTITLE17=Smoke Smoke Smoke (That Cigarette)
TTITLE18=Walk On The Wilde Side
TTITLE19=This Is Me (Ich bin ich)
EXTD=
EXTT0=
EXTT1=
EXTT2=
EXTT3=
EXTT4=
EXTT5=
EXTT6=
EXTT7=
EXTT8=
EXTT9=
EXTT10=
EXTT11=
EXTT12=
EXTT13=
EXTT14=
EXTT15=
EXTT16=
EXTT17=
EXTT18=
EXTT19=
PLAYORDER=
